# xmcd CD database file
#
# Track frame offsets:
#	150
#	22485
#	44464
#	67726
#	91010
#	116907
#	143762
#	167226
#	191787
#	208950
#
# Disc length: 3092 seconds
#
# Revision: 0
# Processed by: cddbd v1.5.1PL2 Copyright (c) Steve Scherf et al.
# Submitted via: CDex 1.51
#
DISCID=960c120a
DTITLE=Out Of The Blue - Shadowplay
DYEAR=2002
DGENRE=Blues
TTITLE0=Unfinished Business
TTITLE1=New Woman, New Man
TTITLE2=The Truth Is Sought By A Liar
TTITLE3=Scoobie Leggett
TTITLE4=In The Cold Light Of Day
TTITLE5=If You Were Gone
TTITLE6=Blow By Blow
TTITLE7=The Jungle Walk
TTITLE8=What's Your Excuse
TTITLE9=Help Yourself
EXTD=YEAR: 2002
EXTT0=
EXTT1=
EXTT2=
EXTT3=
EXTT4=
EXTT5=
EXTT6=
EXTT7=
EXTT8=
EXTT9=
PLAYORDER=
